<svg version="1.1"
  width="960" height="540"
  viewBox="0 0 960 540"
  fill="none"
  stroke="none"
  stroke-linecap="square"
  stroke-miterlimit="10"
  xmlns:xlink="http://www.w3.org/1999/xlink" xmlns="http://www.w3.org/2000/svg">

  <mask id="stripes">
    <rect x="0" y="0" width="960" height="540" fill="#ffffff"/>
    <path fill="#000000" d="m94.92825 112.48715l96.97638 0l0 20.7874l-96.97638 0z" fill-rule="evenodd"/>
    <path fill="#000000" d="m94.92825 356.4343l96.97638 0l0 20.787415l-96.97638 0z" fill-rule="evenodd"/>
    <path fill="#000000" d="m94.92825 275.1186l96.97638 0l0 20.787384l-96.97638 0z" fill-rule="evenodd"/>
    <path fill="#000000" d="m94.92825 193.80287l96.97638 0l0 20.7874l-96.97638 0z" fill-rule="evenodd"/>
  </mask>

  <g mask="url(#stripes)">
    <path fill="#e4e4e4" d="m107.32161 43.74016l0 338.09528c0 14.206818 -3.3809433 24.79364 -10.142838 31.760468c-6.6935883 6.898529 -16.97303 10.347748 -30.838326 10.347748c-8.332832 0 -15.880199 -0.8196106 -22.64209 -2.4588623l0 62.90622c8.810951 1.7075195 19.534355 2.5613098 32.17021 2.5613098c33.94606 0 59.21778 -8.810974 75.81515 -26.432892c16.597366 -17.690216 24.896057 -44.56711 24.896057 -80.630615l0 -336.14865z" fill-rule="evenodd"/>
    <path fill="#e4e4e4" d="m291.49835 182.39581c18.668549 0 28.002838 11.307846 28.002838 33.92354l0 187.77965c0 22.615692 -9.33429 33.923553 -28.002838 33.923553c-18.668549 0 -28.002838 -11.307861 -28.002838 -33.923553l0 -187.77965c0 -22.615692 9.33429 -33.92354 28.002838 -33.92354zm0 -49.125137c-26.562683 0 -46.88475 7.547455 -60.96617 22.642365c-14.081436 15.04158 -21.122147 36.323807 -21.122147 63.84668l0 180.89891c0 27.522888 7.0407104 48.831787 21.122147 63.926697c14.081421 15.041565 34.40349 22.562347 60.96617 22.562347c26.509338 0 46.80475 -7.5207825 60.88617 -22.562347c14.134766 -15.09491 21.202148 -36.40381 21.202148 -63.926697l0 -180.89891c0 -27.522873 -7.067383 -48.8051 -21.202148 -63.84668c-14.081421 -15.09491 -34.37683 -22.642365 -60.88617 -22.642365z" fill-rule="evenodd"/>
    <path fill="#e4e4e4" d="m490.04636 187.35632c9.547638 0 16.508362 2.7736359 20.882141 8.320877c4.4270935 5.547241 6.6406555 14.561523 6.6406555 27.042831l0 19.202011c0 13.068024 -2.6936035 22.402328 -8.080811 28.002914c-5.387207 5.547241 -13.49469 8.320862 -24.32248 8.320862l-21.122131 0l0 -90.889496zm-1.920166 140.09467c12.4279175 0 21.33548 3.0403137 26.722687 9.120941c5.4405518 6.027313 8.160828 16.908447 8.160828 32.643402l0 30.003143c0 12.4279785 -2.293579 21.20224 -6.8806763 26.322754c-4.587158 5.06723 -11.627869 7.6007996 -21.122162 7.6007996l-30.963135 0l0 -105.69104zm-78.16794 -189.2998l0 344.116l85.048615 0c26.88272 0 47.28482 -6.9607544 61.206207 -20.882202c13.921387 -13.921448 20.882141 -34.163574 20.882141 -60.72635l0 -29.523071c0 -38.670715 -13.441406 -62.59323 -40.324097 -71.76752l0 -0.9601135c11.787842 -4.9071655 20.5354 -12.934662 26.242676 -24.08252c5.760559 -11.147797 8.640869 -25.575974 8.640869 -43.284515l0 -13.761429c0 -26.829468 -6.400696 -46.724884 -19.201965 -59.68625c-12.747986 -12.9613495 -33.043335 -19.442032 -60.88617 -19.442032z" fill-rule="evenodd"/>
    <path fill="#e4e4e4" d="m608.55237 138.15118l0 344.116l143.0545 0l0 -49.125153l-88.968994 0l0 -294.99084zm110.0802 0l65.36664 197.62067l0 146.49533l54.08551 0l0 -146.49533l65.36664 -197.62067l-52.56537 0l-36.883728 126.33322l-0.960083 0l-36.883728 -126.33322z" fill-rule="evenodd"/>
  </g>
</svg>
