<svg version="1.1"
  width="890" height="380"
  viewBox="0.0 0.0 890.0 380.0"
  fill="none"
  stroke="none"
  stroke-linecap="square"
  stroke-miterlimit="10"
  xmlns:xlink="http://www.w3.org/1999/xlink" xmlns="http://www.w3.org/2000/svg">

  <mask id="stripes">
    <rect fill="#ffffff" x="0" y="0" width="890" height="380"/>
    <path fill="#000000" d="m49.76908 60.102364l79.496056 0l0 17.039368l-79.496056 0z" fill-rule="evenodd"/>
    <path fill="#000000" d="m56.7059 126.76903l79.49606 0l0 17.039368l-79.49606 0z" fill-rule="evenodd"/>
    <path fill="#000000" d="m56.7059 193.4357l79.49606 0l0 17.039368l-79.49606 0z" fill-rule="evenodd"/>
    <path fill="#000000" d="m56.7059 260.10236l79.49606 0l0 17.039368l-79.49606 0z" fill-rule="evenodd"/>
  </mask>

  <g mask="url(#stripes)">
    <path fill="#e4e4e4" d="m41.643314 368.31848q-15.203125 0 -25.84375 -2.03125l0 -50.671875q8.109375 2.03125 18.234375 2.03125q16.71875 0 24.828125 -8.359375q8.109371 -8.359375 8.109371 -25.578125l0 -272.07812l55.734375 0l0 270.54688q0 43.578125 -20.015625 64.859375q-20.015625 21.28125 -61.04687 21.28125zm201.63889 3.03125q-41.03125 0 -62.828125 -23.296875q-21.78125 -23.3125 -21.78125 -65.875l0 -186.4375q0 -42.5625 21.78125 -65.859375q21.796875 -23.3125 62.828125 -23.3125q41.046875 0 62.828125 23.3125q21.78125 23.296873 21.78125 65.859375l0 186.4375q0 42.5625 -21.78125 65.875q-21.78125 23.296875 -62.828125 23.296875zm0 -50.65625q28.875 0 28.875 -34.96875l0 -193.53125q0 -34.96875 -28.875 -34.96875q-28.875 0 -28.875 34.96875l0 193.53125q0 34.96875 28.875 34.96875zm122.099976 -309.0625l84.109375 0q43.0625 0 62.828156 20.015625q19.765625 19.999998 19.765625 61.546875l0 14.1875q0 27.359375 -8.875 44.59375q-8.859375 17.21875 -27.109406 24.828125l0 1.015625q41.546906 14.171875 41.546906 73.96875l0 30.390625q0 41.046875 -21.53125 62.578125q-21.53128 21.53125 -63.078156 21.53125l-87.65625 0l0 -354.65625zm77.53125 144.39062q16.71875 0 25.078125 -8.609375q8.359375 -8.609375 8.359375 -28.875l0 -19.765625q0 -19.25 -6.84375 -27.859375q-6.84375 -8.625 -21.53125 -8.625l-26.859375 0l0 93.734375l21.796875 0zm10.125 159.59375q14.703125 0 21.78125 -7.84375q7.09375 -7.859375 7.09375 -27.109375l0 -30.90625q0 -24.3125 -8.359375 -33.6875q-8.359375 -9.375 -27.609375 -9.375l-24.828125 0l0 108.921875l31.921875 0zm117.03287 -303.98438l55.734375 0l0 303.98438l91.703125 0l0 50.671875l-147.4375 0l0 -354.65625zm180.87494 203.67188l-67.375 -203.67188l59.28125 0l38.0 130.20312l1.0 0l38.0 -130.20312l54.21875 0l-67.390625 203.67188l0 150.98438l-55.734375 0l0 -150.98438z" fill-rule="nonzero"/>
  </g>
</svg>